{
	"asset":{
		"version":"2.0",
		"generator":"Created using the official Cinema 4D glTF Exporter 1.000x290161"
	},
	"scenes":[{
		"nodes":[0,
		1,
		2,
		3,
		8]
	}],
	"nodes":[{
		"name":"Plane",
		"translation":[35.49559020996094,
		0.7182193398475647,
		-42.032772064208987],
		"rotation":[0.0,
		0.0,
		0.0,
		-1.0],
		"scale":[0.3439902663230896,
		0.3439902663230896,
		0.3439902663230896],
		"mesh":0
	},
	{
		"name":"Camera.1",
		"translation":[6.524754047393799,
		562.230712890625,
		-0.742626965045929],
		"rotation":[0.4925280511379242,
		-0.5075314044952393,
		-0.4939517378807068,
		-0.5058059692382813],
		"scale":[0.8387382626533508,
		0.8387382626533508,
		0.8387382626533508],
		"camera":0
	},
	{
		"name":"Camera",
		"translation":[484.9761962890625,
		434.0044860839844,
		-2.8100905418395998],
		"rotation":[0.11796197295188904,
		-0.7123059630393982,
		-0.12342324107885361,
		-0.6807876825332642],
		"scale":[1.0,
		1.0,
		1.0],
		"camera":1
	},
	{
		"name":"ICECUBE",
		"translation":[0.0,
		174.6996307373047,
		0.0],
		"rotation":[0.0,
		0.0,
		0.0,
		-1.0],
		"scale":[1.0,
		1.0,
		1.0],
		"children":[4]
	},
	{
		"name":"Subdivision Surface",
		"children":[5]
	},
	{
		"name":"Cube.1",
		"children":[6]
	},
	{
		"name":"Cube.1",
		"children":[7]
	},
	{
		"name":"Cube.1",
		"mesh":1
	},
	{
		"name":"Cube.1",
		"translation":[36.86745071411133,
		297.05572509765627,
		-35.4299430847168],
		"rotation":[0.0,
		0.0,
		0.0,
		-1.0],
		"scale":[2.326657772064209,
		2.326657772064209,
		2.326657772064209],
		"mesh":2
	}],
	"meshes":[{
		"primitives":[{
			"attributes":{
				"POSITION":1,
				"NORMAL":2,
				"TEXCOORD_0":3
			},
			"indices":0,
			"material":0
		}]
	},
	{
		"primitives":[{
			"attributes":{
				"POSITION":11,
				"NORMAL":12,
				"TEXCOORD_0":13
			},
			"indices":10,
			"material":1
		}]
	},
	{
		"primitives":[{
			"attributes":{
				"POSITION":15,
				"NORMAL":16,
				"TEXCOORD_0":17
			},
			"indices":14,
			"material":2
		}]
	}],
	"cameras":[{
		"type":"perspective",
		"perspective":{
			"znear":0.009999999776482582,
			"zfar":10000000000.0,
			"aspectRatio":1.7777777910232545,
			"yfov":1.769155740737915
		}
	},
	{
		"type":"perspective",
		"perspective":{
			"znear":0.009999999776482582,
			"zfar":10000000000.0,
			"aspectRatio":1.7777777910232545,
			"yfov":0.5483348965644836
		}
	}],
	"accessors":[{
		"bufferView":0,
		"type":"SCALAR",
		"componentType":5123,
		"count":600,
		"byteOffset":0,
		"min":[0],
		"max":[120]
	},
	{
		"bufferView":1,
		"type":"VEC3",
		"componentType":5126,
		"count":121,
		"byteOffset":0,
		"min":[-1185.5509033203125,
		-3.935046669378318e-16,
		-1241.2806396484375],
		"max":[1185.551025390625,
		-3.935046669378318e-16,
		1241.2806396484375]
	},
	{
		"bufferView":1,
		"type":"VEC3",
		"componentType":5126,
		"count":121,
		"byteOffset":12,
		"min":[0.0,
		1.0,
		0.0],
		"max":[0.0,
		1.0,
		0.0]
	},
	{
		"bufferView":1,
		"type":"VEC2",
		"componentType":5126,
		"count":121,
		"byteOffset":24,
		"min":[0.0,
		0.0],
		"max":[1.0,
		1.0]
	},
	{
		"bufferView":2,
		"type":"SCALAR",
		"componentType":5126,
		"count":5,
		"byteOffset":0,
		"min":[0.0],
		"max":[3.0]
	},
	{
		"bufferView":2,
		"type":"VEC3",
		"componentType":5126,
		"count":5,
		"byteOffset":20,
		"min":[136.43331909179688,
		373.281005859375,
		-14.905731201171875],
		"max":[1977.996826171875,
		1942.493896484375,
		53.85819625854492]
	},
	{
		"bufferView":3,
		"type":"SCALAR",
		"componentType":5126,
		"count":3,
		"byteOffset":0,
		"min":[0.0],
		"max":[3.0]
	},
	{
		"bufferView":3,
		"type":"VEC4",
		"componentType":5126,
		"count":3,
		"byteOffset":12,
		"min":[0.015991514548659326,
		-0.726622462272644,
		-0.4895364046096802,
		-0.6995588541030884],
		"max":[0.4895583391189575,
		-0.5102271437644959,
		-0.01692262850701809,
		-0.5102499723434448]
	},
	{
		"bufferView":4,
		"type":"SCALAR",
		"componentType":5126,
		"count":2,
		"byteOffset":0,
		"min":[0.0],
		"max":[3.0]
	},
	{
		"bufferView":4,
		"type":"VEC3",
		"componentType":5126,
		"count":2,
		"byteOffset":8,
		"min":[1.0,
		1.0,
		1.0],
		"max":[1.0,
		1.0,
		1.0]
	},
	{
		"bufferView":5,
		"type":"SCALAR",
		"componentType":5123,
		"count":232320,
		"byteOffset":0,
		"min":[0],
		"max":[38721]
	},
	{
		"bufferView":6,
		"type":"VEC3",
		"componentType":5126,
		"count":38722,
		"byteOffset":0,
		"min":[-196.31459045410157,
		-157.75927734375,
		-236.52915954589845],
		"max":[225.48451232910157,
		177.3050079345703,
		203.87850952148438]
	},
	{
		"bufferView":6,
		"type":"VEC3",
		"componentType":5126,
		"count":38722,
		"byteOffset":12,
		"min":[-0.9999867677688599,
		-0.9999912977218628,
		-0.9999958872795105],
		"max":[0.9999939203262329,
		0.9999956488609314,
		0.9999959468841553]
	},
	{
		"bufferView":6,
		"type":"VEC2",
		"componentType":5126,
		"count":38722,
		"byteOffset":24,
		"min":[0.005287611857056618,
		0.023331105709075929],
		"max":[0.986852765083313,
		0.9789108037948608]
	},
	{
		"bufferView":7,
		"type":"SCALAR",
		"componentType":5123,
		"count":36324,
		"byteOffset":0,
		"min":[0],
		"max":[6501]
	},
	{
		"bufferView":8,
		"type":"VEC3",
		"componentType":5126,
		"count":6502,
		"byteOffset":0,
		"min":[-179.0,
		-127.36144256591797,
		-189.84347534179688],
		"max":[179.0,
		127.36144256591797,
		189.84347534179688]
	},
	{
		"bufferView":8,
		"type":"VEC3",
		"componentType":5126,
		"count":6502,
		"byteOffset":12,
		"min":[-0.9997885227203369,
		-0.999710738658905,
		-0.9997883439064026],
		"max":[0.9997885227203369,
		0.999710738658905,
		0.9997884631156921]
	},
	{
		"bufferView":8,
		"type":"VEC2",
		"componentType":5126,
		"count":6502,
		"byteOffset":24,
		"min":[0.0,
		0.0],
		"max":[1.0,
		1.0]
	}],
	"bufferViews":[{
		"buffer":0,
		"byteOffset":0,
		"byteLength":1200,
		"target":34963
	},
	{
		"buffer":0,
		"byteOffset":1200,
		"byteLength":3872,
		"target":34962,
		"byteStride":32
	},
	{
		"buffer":1,
		"byteOffset":0,
		"byteLength":80
	},
	{
		"buffer":1,
		"byteOffset":80,
		"byteLength":60
	},
	{
		"buffer":1,
		"byteOffset":140,
		"byteLength":32
	},
	{
		"buffer":2,
		"byteOffset":0,
		"byteLength":464640,
		"target":34963
	},
	{
		"buffer":2,
		"byteOffset":464640,
		"byteLength":1239104,
		"target":34962,
		"byteStride":32
	},
	{
		"buffer":3,
		"byteOffset":0,
		"byteLength":72648,
		"target":34963
	},
	{
		"buffer":3,
		"byteOffset":72648,
		"byteLength":208064,
		"target":34962,
		"byteStride":32
	}],
	"buffers":[{
		"uri":"data:application/octet-stream;base64,",
		"byteLength":5072
	},
	{
		"uri":"data:application/octet-stream;base64,",
		"byteLength":172
	},
	{
		"uri":"data:application/octet-stream;base64,",
		"byteLength":1703744
	},
	{
		"uri":"data:application/octet-stream;base64,",
		"byteLength":280712
	}],
	"materials":[{
		"pbrMetallicRoughness":{
			"baseColorFactor":[1.0,
			1.0,
			1.0,
			1.0],
			"metallicFactor":1.0,
			"roughnessFactor":1.0
		},
		"emissiveFactor":[0.0,
		0.0,
		0.0],
		"alphaMode":"OPAQUE",
		"doubleSided":true,
		"name":""
	},
	{
		"pbrMetallicRoughness":{
			"baseColorFactor":[1.0,
			1.0,
			1.0,
			1.0],
			"metallicFactor":1.0,
			"roughnessFactor":1.0
		},
		"emissiveFactor":[0.0,
		0.0,
		0.0],
		"alphaMode":"OPAQUE",
		"doubleSided":true,
		"name":""
	},
	{
		"pbrMetallicRoughness":{
			"baseColorFactor":[0.7647058963775635,
			0.7647058963775635,
			0.7647058963775635,
			0.27054902176296027],
			"metallicFactor":1.0,
			"roughnessFactor":0.0
		},
		"emissiveFactor":[0.0,
		0.0,
		0.0],
		"alphaMode":"BLEND",
		"doubleSided":true,
		"name":"water"
	}],
	"animations":[{
		"samplers":[{
			"input":4,
			"interpolation":"LINEAR",
			"output":5
		},
		{
			"input":6,
			"interpolation":"LINEAR",
			"output":7
		},
		{
			"input":8,
			"interpolation":"STEP",
			"output":9
		}],
		"channels":[{
			"sampler":0,
			"target":{
				"node":2,
				"path":"translation"
			}
		},
		{
			"sampler":1,
			"target":{
				"node":2,
				"path":"rotation"
			}
		},
		{
			"sampler":2,
			"target":{
				"node":2,
				"path":"scale"
			}
		}]
	}]
}