{
	"asset":{
		"version":"2.0",
		"generator":"Created using the official Cinema 4D glTF Exporter 1.000x290161"
	},
	"scenes":[{
		"nodes":[0]
	}],
	"nodes":[{
		"name":"ICECUBE",
		"translation":[0.0,
		174.6996307373047,
		0.0],
		"rotation":[0.0,
		0.0,
		0.0,
		-1.0],
		"scale":[1.0,
		1.0,
		1.0],
		"children":[1,
		5]
	},
	{
		"name":"Subdivision Surface",
		"children":[2]
	},
	{
		"name":"Cube.1",
		"children":[3]
	},
	{
		"name":"Cube.1",
		"children":[4]
	},
	{
		"name":"Cube.1",
		"mesh":0
	},
	{
		"name":"Melt",
		"translation":[0.0,
		-173.48838806152345,
		0.0],
		"rotation":[0.0,
		0.0,
		0.0,
		-1.0],
		"scale":[1.0,
		1.0,
		1.0]
	}],
	"meshes":[{
		"primitives":[{
			"attributes":{
				"POSITION":1,
				"NORMAL":2,
				"TEXCOORD_0":3
			},
			"indices":0,
			"material":0
		}]
	}],
	"accessors":[{
		"bufferView":0,
		"type":"SCALAR",
		"componentType":5123,
		"count":232320,
		"byteOffset":0,
		"min":[0],
		"max":[38721]
	},
	{
		"bufferView":1,
		"type":"VEC3",
		"componentType":5126,
		"count":38722,
		"byteOffset":0,
		"min":[-99.22914123535156,
		57.66326904296875,
		-98.25131225585938],
		"max":[111.05012512207031,
		284.8526306152344,
		110.49247741699219]
	},
	{
		"bufferView":1,
		"type":"VEC3",
		"componentType":5126,
		"count":38722,
		"byteOffset":12,
		"min":[-0.9999991655349731,
		-0.9999996423721314,
		-0.9999997615814209],
		"max":[0.9999999403953552,
		0.999998152256012,
		0.9999995231628418]
	},
	{
		"bufferView":1,
		"type":"VEC2",
		"componentType":5126,
		"count":38722,
		"byteOffset":24,
		"min":[0.005287611857056618,
		0.023331105709075929],
		"max":[0.986852765083313,
		0.9789108037948608]
	},
	{
		"bufferView":2,
		"type":"SCALAR",
		"componentType":5126,
		"count":4,
		"byteOffset":0,
		"min":[0.0],
		"max":[3.0]
	},
	{
		"bufferView":2,
		"type":"SCALAR",
		"componentType":5126,
		"count":16,
		"byteOffset":16,
		"min":[0.0],
		"max":[1.0]
	}],
	"bufferViews":[{
		"buffer":0,
		"byteOffset":0,
		"byteLength":464640,
		"target":34963
	},
	{
		"buffer":0,
		"byteOffset":464640,
		"byteLength":1239104,
		"target":34962,
		"byteStride":32
	},
	{
		"buffer":1,
		"byteOffset":0,
		"byteLength":80
	}],
	"buffers":[{
		"uri":"data:application/octet-stream;base64,",
		"byteLength":1703744
	},
	{
		"uri":"data:application/octet-stream;base64,",
		"byteLength":80
	}],
	"materials":[{
		"pbrMetallicRoughness":{
			"baseColorFactor":[1.0,
			1.0,
			1.0,
			1.0],
			"metallicFactor":1.0,
			"roughnessFactor":1.0
		},
		"emissiveFactor":[0.0,
		0.0,
		0.0],
		"alphaMode":"OPAQUE",
		"doubleSided":true,
		"name":""
	}],
	"animations":[{
		"samplers":[{
			"input":4,
			"interpolation":"LINEAR",
			"output":5
		}],
		"channels":[{
			"sampler":0,
			"target":{
				"node":5,
				"path":"weights"
			}
		}]
	}]
}