<?xml version="1.0" standalone="no"?>
<!DOCTYPE svg PUBLIC "-//W3C//DTD SVG 20010904//EN"
 "http://www.w3.org/TR/2001/REC-SVG-20010904/DTD/svg10.dtd">
<svg version="1.0" xmlns="http://www.w3.org/2000/svg"
 width="1280.000000pt" height="690.000000pt" viewBox="0 0 1280.000000 690.000000"
 preserveAspectRatio="xMidYMid meet">
<metadata>
Created by potrace 1.15, written by Peter Selinger 2001-2017
</metadata>
<g transform="translate(0.000000,690.000000) scale(0.100000,-0.100000)"
fill="#000000" stroke="#000000" stroke-width="4">
<path d="M7415 6894 c-385 -24 -658 -77 -1100 -215 -1052 -329 -1680 -570
-2133 -818 -455 -249 -560 -308 -607 -345 -21 -17 -48 -31 -60 -31 -21 0 -54
-54 -55 -91 0 -12 -7 -27 -16 -35 -14 -12 -14 -14 5 -21 20 -7 21 -14 21 -160
0 -225 24 -676 56 -1038 43 -499 119 -997 215 -1420 68 -299 68 -301 68 -682
1 -212 -3 -348 -8 -348 -19 0 -41 45 -41 82 l0 38 -384 0 c-733 0 -874 -24
-1381 -235 -325 -135 -456 -160 -790 -149 -209 7 -586 -9 -728 -31 -259 -40
-418 -132 -463 -268 -41 -124 19 -208 173 -243 77 -17 188 -17 640 2 157 7
254 0 553 -38 204 -27 545 -30 950 -9 467 24 767 6 971 -58 88 -28 112 -49
140 -123 17 -46 38 -78 79 -119 109 -110 180 -129 496 -129 309 0 404 -21 716
-161 311 -139 466 -189 666 -213 452 -56 933 -45 1792 39 485 47 554 53 875
70 487 26 671 41 918 76 240 33 304 54 468 156 239 147 272 153 874 173 469
15 658 54 1350 275 330 106 508 158 690 205 343 88 435 131 435 203 0 59 -62
96 -199 118 -123 19 -599 61 -1196 105 -121 8 -221 17 -222 18 -2 1 3 27 11
57 38 146 41 203 39 727 -1 282 -6 734 -12 1005 -6 270 -13 1028 -16 1682 -3
655 -8 1215 -11 1244 -8 79 -45 113 -144 135 -41 10 -169 48 -285 86 -462 151
-906 240 -1915 385 -522 74 -747 95 -1100 99 -151 2 -302 2 -335 0z m-3750
-5234 c20 -38 85 -86 128 -94 31 -6 34 -10 55 -82 56 -189 195 -250 737 -320
110 -14 265 -34 345 -44 80 -11 231 -26 335 -35 749 -61 880 -74 1045 -101
301 -49 472 -99 790 -229 525 -215 666 -257 917 -271 185 -10 338 10 693 92
423 98 767 201 1285 384 162 57 280 92 445 129 433 97 540 135 635 222 36 33
49 39 87 39 107 0 1245 -92 1373 -111 l80 -12 -40 -14 c-22 -8 -134 -39 -250
-69 -221 -58 -316 -87 -715 -214 -678 -216 -825 -244 -1395 -264 -319 -12
-396 -17 -480 -36 -110 -24 -240 -82 -388 -174 -126 -78 -198 -97 -527 -135
-199 -23 -353 -34 -760 -56 -327 -18 -413 -24 -825 -65 -849 -84 -1312 -99
-1730 -55 -276 28 -366 55 -706 205 -354 157 -450 180 -768 180 -225 0 -298 8
-362 41 -51 26 -103 87 -125 150 -27 77 -82 129 -172 162 -90 33 -233 63 -381
78 -129 13 -554 8 -876 -11 -267 -16 -520 -8 -785 26 -240 30 -438 35 -835 20
-235 -9 -313 -2 -357 33 -20 17 -21 21 -10 59 31 104 190 171 479 203 54 6
285 12 513 14 256 2 440 8 480 15 130 23 242 61 510 173 402 167 561 194 1187
196 l352 1 16 -30z"/>
</g>
</svg>
